<?xml version="1.0" encoding="UTF-8"?>
<svg width="28px" height="28px" viewBox="0 0 28 28" version="1.1" xmlns="http://www.w3.org/2000/svg" xmlns:xlink="http://www.w3.org/1999/xlink">
    <!-- Generator: sketchtool 50.2 (55047) - http://www.bohemiancoding.com/sketch -->
    <title>E633A171-11CD-406D-8AF7-DB70E497F0D1</title>
    <desc>Created with sketchtool.</desc>
    <defs></defs>
    <g id="--Learners-Section" stroke="none" stroke-width="1" fill="none" fill-rule="evenodd">
        <g id="Learning-Ecosystem---Editable" transform="translate(-498.000000, -412.000000)" fill="#3359DB">
            <g id="Modal" transform="translate(448.000000, 204.000000)">
                <g id="upload-attachements" transform="translate(50.000000, 208.000000)">
                    <g id="file-icon">
                        <rect id="base" fill-opacity="0.1" x="0" y="0" width="28" height="27.7540704" rx="2"></rect>
                        <path d="M16.1247401,9.10460451 L16.1247401,11.0210202 L18.0581372,11.0210202 L16.1247401,9.10460451 Z M15.4261954,11.0210202 L15.4261954,8.94379246 L10.8856549,8.94379246 C10.6928565,8.94379246 10.5363825,9.09871903 10.5363825,9.29034329 L10.5363825,18.2911441 C10.5363825,18.4829415 10.6928565,18.6375218 10.8856549,18.6375218 L17.8711019,18.6375218 C18.0639002,18.6375218 18.2203742,18.4829415 18.2203742,18.2911441 L18.2203742,11.7139487 L16.1247401,11.7139487 L15.4261954,11.7139487 L15.4261954,11.0210202 Z M18.9189189,11.0220588 L18.9189189,11.0222319 L18.9189189,18.9838996 C18.9189189,19.1753507 18.7624449,19.3301042 18.5696466,19.3301042 L10.1871102,19.3301042 C9.99431185,19.3301042 9.83783784,19.1753507 9.83783784,18.9838996 L9.83783784,8.59793405 C9.83783784,8.40613669 9.99431185,8.25121012 10.1871102,8.25121012 L16.1247401,8.25121012 L16.1247401,8.25242184 L16.1247401,8.25224873 L18.9178711,11.0210202 L18.9189189,11.0210202 L18.9189189,11.0220588 Z" id="Fill-1"></path>
                    </g>
                </g>
            </g>
        </g>
    </g>
</svg>